G04*
G04 #@! TF.GenerationSoftware,Altium Limited,Altium Designer,24.1.2 (44)*
G04*
G04 Layer_Color=12632256*
%FSLAX25Y25*%
%MOIN*%
G70*
G04*
G04 #@! TF.SameCoordinates,EBF418CC-EE97-4C3D-AA47-A42144AD25BC*
G04*
G04*
G04 #@! TF.FilePolarity,Positive*
G04*
G01*
G75*
%ADD53C,0.08661*%
%ADD54R,0.05937X0.05937*%
%ADD55C,0.05937*%
%ADD56C,0.05394*%
%ADD57R,0.05394X0.05394*%
%ADD58R,0.05394X0.05394*%
%ADD59R,0.06791X0.06791*%
%ADD60C,0.06791*%
%ADD61R,0.06791X0.06791*%
%ADD62C,0.02559*%
%ADD63O,0.07284X0.04134*%
%ADD64O,0.08465X0.04134*%
D53*
X132500Y128500D02*
D03*
X278000Y253500D02*
D03*
D54*
X208342Y140843D02*
D03*
X179000Y141000D02*
D03*
D55*
X198500Y131000D02*
D03*
X188657Y140843D02*
D03*
X169157Y131157D02*
D03*
X159315Y141000D02*
D03*
D56*
X133000Y157000D02*
D03*
X143000Y142000D02*
D03*
X218000Y222500D02*
D03*
Y232500D02*
D03*
Y242500D02*
D03*
X232139Y242000D02*
D03*
D57*
X143000Y157000D02*
D03*
X133000Y142000D02*
D03*
X218000Y212500D02*
D03*
D58*
X232139Y252000D02*
D03*
D59*
X138000Y252500D02*
D03*
D60*
Y242500D02*
D03*
Y232500D02*
D03*
Y222500D02*
D03*
Y212500D02*
D03*
Y202500D02*
D03*
X268500Y133000D02*
D03*
X258500D02*
D03*
X248500D02*
D03*
X238500D02*
D03*
X228500D02*
D03*
D61*
X278500D02*
D03*
D62*
X266512Y237878D02*
D03*
Y215122D02*
D03*
D63*
X281000Y209492D02*
D03*
Y243508D02*
D03*
D64*
X264543Y209492D02*
D03*
Y243508D02*
D03*
M02*
