G04*
G04 #@! TF.GenerationSoftware,Altium Limited,Altium Designer,24.1.2 (44)*
G04*
G04 Layer_Color=255*
%FSLAX25Y25*%
%MOIN*%
G70*
G04*
G04 #@! TF.SameCoordinates,EBF418CC-EE97-4C3D-AA47-A42144AD25BC*
G04*
G04*
G04 #@! TF.FilePolarity,Positive*
G04*
G01*
G75*
%ADD16R,0.09843X0.03937*%
%ADD17R,0.03937X0.07087*%
%ADD18R,0.03543X0.05709*%
%ADD19R,0.03740X0.06890*%
%ADD20R,0.12598X0.06890*%
%ADD21R,0.02200X0.05000*%
%ADD22R,0.09843X0.06299*%
%ADD23R,0.06299X0.09843*%
%ADD24R,0.05709X0.03543*%
%ADD25R,0.03543X0.05118*%
%ADD26R,0.04724X0.04724*%
%ADD27R,0.05118X0.03543*%
%ADD53C,0.08661*%
%ADD54R,0.05937X0.05937*%
%ADD55C,0.05937*%
%ADD56C,0.05394*%
%ADD57R,0.05394X0.05394*%
%ADD58R,0.05394X0.05394*%
%ADD59R,0.06791X0.06791*%
%ADD60C,0.06791*%
%ADD61R,0.06791X0.06791*%
%ADD62C,0.02559*%
%ADD63O,0.07284X0.04134*%
%ADD64O,0.08465X0.04134*%
D16*
X208421Y227280D02*
D03*
Y219406D02*
D03*
Y211532D02*
D03*
Y203657D02*
D03*
Y195783D02*
D03*
Y187909D02*
D03*
Y180035D02*
D03*
Y172161D02*
D03*
X148579D02*
D03*
Y180035D02*
D03*
Y187909D02*
D03*
Y195783D02*
D03*
Y203657D02*
D03*
Y211532D02*
D03*
Y219406D02*
D03*
Y227280D02*
D03*
D17*
X198185Y166256D02*
D03*
X190311D02*
D03*
X182437D02*
D03*
X174563D02*
D03*
X166689D02*
D03*
X158815D02*
D03*
D18*
X131500Y186000D02*
D03*
X138980D02*
D03*
Y176500D02*
D03*
X131500D02*
D03*
X171260Y152500D02*
D03*
X178740D02*
D03*
X190000D02*
D03*
X197480D02*
D03*
X270260Y154000D02*
D03*
X277740D02*
D03*
D19*
X255445Y166598D02*
D03*
X264500D02*
D03*
X273555D02*
D03*
D20*
X264500Y191402D02*
D03*
D21*
X230300Y201400D02*
D03*
X234000D02*
D03*
X237700D02*
D03*
Y211600D02*
D03*
X230300D02*
D03*
D22*
X246610Y151000D02*
D03*
X260390D02*
D03*
X234000D02*
D03*
X220220D02*
D03*
D23*
X229000Y189390D02*
D03*
Y175610D02*
D03*
D24*
X244000Y183760D02*
D03*
Y191240D02*
D03*
X243500Y166500D02*
D03*
Y173980D02*
D03*
X253000Y210240D02*
D03*
Y202760D02*
D03*
X243000Y225760D02*
D03*
Y233240D02*
D03*
X251711Y240260D02*
D03*
Y247740D02*
D03*
X243000D02*
D03*
Y240260D02*
D03*
D25*
X270500Y146000D02*
D03*
X277980D02*
D03*
D26*
X279500Y200500D02*
D03*
X271232D02*
D03*
D27*
X252000Y233240D02*
D03*
Y225760D02*
D03*
D53*
X132500Y128500D02*
D03*
X278000Y253500D02*
D03*
D54*
X208342Y140843D02*
D03*
X179000Y141000D02*
D03*
D55*
X198500Y131000D02*
D03*
X188657Y140843D02*
D03*
X169157Y131157D02*
D03*
X159315Y141000D02*
D03*
D56*
X133000Y157000D02*
D03*
X143000Y142000D02*
D03*
X218000Y222500D02*
D03*
Y232500D02*
D03*
Y242500D02*
D03*
X232139Y242000D02*
D03*
D57*
X143000Y157000D02*
D03*
X133000Y142000D02*
D03*
X218000Y212500D02*
D03*
D58*
X232139Y252000D02*
D03*
D59*
X138000Y252500D02*
D03*
D60*
Y242500D02*
D03*
Y232500D02*
D03*
Y222500D02*
D03*
Y212500D02*
D03*
Y202500D02*
D03*
X268500Y133000D02*
D03*
X258500D02*
D03*
X248500D02*
D03*
X238500D02*
D03*
X228500D02*
D03*
D61*
X278500D02*
D03*
D62*
X266512Y237878D02*
D03*
Y215122D02*
D03*
D63*
X281000Y209492D02*
D03*
Y243508D02*
D03*
D64*
X264543Y209492D02*
D03*
Y243508D02*
D03*
M02*
