G04*
G04 #@! TF.GenerationSoftware,Altium Limited,Altium Designer,24.1.2 (44)*
G04*
G04 Layer_Color=16711935*
%FSLAX25Y25*%
%MOIN*%
G70*
G04*
G04 #@! TF.SameCoordinates,EBF418CC-EE97-4C3D-AA47-A42144AD25BC*
G04*
G04*
G04 #@! TF.FilePolarity,Positive*
G04*
G01*
G75*
%ADD10C,0.00787*%
%ADD11C,0.00000*%
%ADD12C,0.00197*%
%ADD14C,0.00500*%
%ADD15C,0.00600*%
%ADD72C,0.00394*%
D10*
X143394Y149441D02*
X142606D01*
X143394D01*
X133394Y149559D02*
X132606D01*
X133394D01*
X218394Y204941D02*
X217606D01*
X218394D01*
X284224Y200500D02*
X283437D01*
X284224D01*
X239894Y257500D02*
X239106D01*
X239894D01*
D11*
X227900Y205300D02*
X228748Y205651D01*
X229100Y206500D01*
X228748Y207348D01*
X227900Y207700D01*
D12*
X250327Y162169D02*
Y195831D01*
X278673D01*
Y162169D02*
Y195831D01*
X250327Y162169D02*
X278673D01*
D14*
X211335Y127142D02*
Y144858D01*
X184917Y127142D02*
X211335D01*
X184917D02*
Y144858D01*
X211335D01*
X181992Y127299D02*
Y145016D01*
X155575Y127299D02*
X181992D01*
X155575D02*
Y145016D01*
X181992D01*
X279303Y198039D02*
Y202961D01*
X271429Y198039D02*
Y202961D01*
Y198039D02*
X279303D01*
X271429Y202961D02*
X279303D01*
X262299Y244098D02*
X291236D01*
Y208902D02*
Y244098D01*
X262299Y208902D02*
X291236D01*
X262299D02*
Y244098D01*
D15*
X240100Y203100D02*
Y209900D01*
X238700D02*
X240100D01*
X236800D02*
X238700D01*
X231200D02*
X236800D01*
X227900Y207700D02*
Y209900D01*
Y205300D02*
Y207700D01*
Y203100D02*
Y205300D01*
Y203100D02*
X229300D01*
X231200D01*
X233000D01*
X235000D01*
X236800D01*
X229300Y200600D02*
Y203100D01*
Y200600D02*
X231200D01*
Y203100D01*
X233000Y200600D02*
Y203100D01*
Y200600D02*
X235000D01*
Y203100D01*
X238700D02*
X240100D01*
X236800D02*
X238700D01*
X236800Y200600D02*
Y203100D01*
Y200600D02*
X238700D01*
Y203100D01*
Y209900D02*
Y212400D01*
X236800D02*
X238700D01*
X236800Y209900D02*
Y212400D01*
X227900Y209900D02*
X229300D01*
X231200D01*
Y212400D01*
X229300D02*
X231200D01*
X229300Y209900D02*
Y212400D01*
D72*
X209996Y166256D02*
Y260744D01*
X147004Y166256D02*
Y260744D01*
Y166256D02*
X209996D01*
X139177Y183539D02*
Y188461D01*
X131303D02*
X139177D01*
X131303Y183539D02*
Y188461D01*
Y183539D02*
X139177D01*
X131303Y174039D02*
Y178961D01*
Y174039D02*
X139177D01*
Y178961D01*
X131303D02*
X139177D01*
X171063Y154961D02*
X178937D01*
Y150039D02*
Y154961D01*
X171063Y150039D02*
X178937D01*
X171063D02*
Y154961D01*
X189803D02*
X197677D01*
Y150039D02*
Y154961D01*
X189803Y150039D02*
X197677D01*
X189803D02*
Y154961D01*
X148000Y152000D02*
Y162000D01*
X128000D02*
X148000D01*
X128000Y152000D02*
Y162000D01*
Y152000D02*
X148000D01*
X128000Y137000D02*
Y147000D01*
Y137000D02*
X148000D01*
Y147000D01*
X128000D02*
X148000D01*
X251705Y172110D02*
Y185890D01*
X277295D01*
Y172110D02*
Y185890D01*
X251705Y172110D02*
X277295D01*
X251705Y181165D02*
X260760Y172110D01*
X213000Y207500D02*
X223000D01*
Y247500D01*
X213000D02*
X223000D01*
X213000Y207500D02*
Y247500D01*
X277937Y151539D02*
Y156461D01*
X270063D02*
X277937D01*
X270063Y151539D02*
Y156461D01*
Y151539D02*
X277937D01*
X245035Y154937D02*
X249563Y159465D01*
X261965D01*
Y142535D02*
Y159465D01*
X249563Y142535D02*
X261965D01*
X245035Y147063D02*
X249563Y142535D01*
X245035Y147063D02*
Y154937D01*
X249563Y159465D01*
X231047Y142535D02*
X235575Y147063D01*
X218646Y142535D02*
X231047D01*
X218646D02*
Y159465D01*
X231047D01*
X235575Y154937D01*
Y147063D02*
Y154937D01*
X231047Y142535D02*
X235575Y147063D01*
X232937Y190965D02*
X237465Y186437D01*
Y174035D02*
Y186437D01*
X220535Y174035D02*
X237465D01*
X220535D02*
Y186437D01*
X225063Y190965D01*
X232937D01*
X237465Y186437D01*
X241539Y191437D02*
X246461D01*
X241539Y183563D02*
Y191437D01*
Y183563D02*
X246461D01*
Y191437D01*
X241039Y174177D02*
X245961D01*
X241039Y166303D02*
Y174177D01*
Y166303D02*
X245961D01*
Y174177D01*
X250539Y202563D02*
X255461D01*
Y210437D01*
X250539D02*
X255461D01*
X250539Y202563D02*
Y210437D01*
X240539Y233437D02*
X245461D01*
X240539Y225563D02*
Y233437D01*
Y225563D02*
X245461D01*
Y233437D01*
X227139Y257000D02*
X237139D01*
X227139Y237000D02*
Y257000D01*
Y237000D02*
X237139D01*
Y257000D01*
X249250Y247937D02*
X254172D01*
X249250Y240063D02*
Y247937D01*
Y240063D02*
X254172D01*
Y247937D01*
X240539Y240063D02*
X245461D01*
Y247937D01*
X240539D02*
X245461D01*
X240539Y240063D02*
Y247937D01*
X133098Y257500D02*
X142902D01*
X133098Y197500D02*
Y257500D01*
Y197500D02*
X142902D01*
Y257500D01*
X283500Y128098D02*
Y137902D01*
X223500D02*
X283500D01*
X223500Y128098D02*
Y137902D01*
Y128098D02*
X283500D01*
M02*
