G04*
G04 #@! TF.GenerationSoftware,Altium Limited,Altium Designer,24.1.2 (44)*
G04*
G04 Layer_Color=128*
%FSLAX25Y25*%
%MOIN*%
G70*
G04*
G04 #@! TF.SameCoordinates,C2AC8D72-DAC2-4925-AC6E-3273F7DC1B7E*
G04*
G04*
G04 #@! TF.FilePolarity,Positive*
G04*
G01*
G75*
%ADD14C,0.00500*%
D14*
X128563Y128500D02*
X136437D01*
X132500Y124563D02*
Y132437D01*
X274063Y253500D02*
X281937D01*
X278000Y249563D02*
Y257437D01*
X206374Y140843D02*
X210311D01*
X208342Y138874D02*
Y142811D01*
X196531Y131000D02*
X200468D01*
X198500Y129032D02*
Y132968D01*
X186689Y140843D02*
X190626D01*
X188657Y138874D02*
Y142811D01*
X177032Y141000D02*
X180968D01*
X179000Y139032D02*
Y142968D01*
X167189Y131157D02*
X171126D01*
X169157Y129189D02*
Y133126D01*
X157346Y141000D02*
X161283D01*
X159315Y139032D02*
Y142968D01*
X130992Y157000D02*
X135008D01*
X133000Y154992D02*
Y159008D01*
X140992Y157000D02*
X145008D01*
X143000Y154992D02*
Y159008D01*
X140992Y142000D02*
X145008D01*
X143000Y139992D02*
Y144008D01*
X130992Y142000D02*
X135008D01*
X133000Y139992D02*
Y144008D01*
X215992Y212500D02*
X220008D01*
X218000Y210492D02*
Y214508D01*
X215992Y222500D02*
X220008D01*
X218000Y220492D02*
Y224508D01*
X215992Y232500D02*
X220008D01*
X218000Y230492D02*
Y234508D01*
X215992Y242500D02*
X220008D01*
X218000Y240492D02*
Y244508D01*
X230132Y242000D02*
X234147D01*
X232139Y239992D02*
Y244008D01*
X230132Y252000D02*
X234147D01*
X232139Y249992D02*
Y254008D01*
X135736Y252500D02*
X140264D01*
X138000Y250236D02*
Y254764D01*
X135736Y242500D02*
X140264D01*
X138000Y240236D02*
Y244764D01*
X135736Y232500D02*
X140264D01*
X138000Y230236D02*
Y234764D01*
X135736Y222500D02*
X140264D01*
X138000Y220236D02*
Y224764D01*
X135736Y212500D02*
X140264D01*
X138000Y210236D02*
Y214764D01*
X135736Y202500D02*
X140264D01*
X138000Y200236D02*
Y204764D01*
X276236Y133000D02*
X280764D01*
X278500Y130736D02*
Y135264D01*
X266236Y133000D02*
X270764D01*
X268500Y130736D02*
Y135264D01*
X256236Y133000D02*
X260764D01*
X258500Y130736D02*
Y135264D01*
X246236Y133000D02*
X250764D01*
X248500Y130736D02*
Y135264D01*
X236236Y133000D02*
X240764D01*
X238500Y130736D02*
Y135264D01*
X226236Y133000D02*
X230764D01*
X228500Y130736D02*
Y135264D01*
X265232Y237878D02*
X267791D01*
X266512Y236598D02*
Y239158D01*
X265232Y215122D02*
X267791D01*
X266512Y213843D02*
Y216402D01*
X279720Y209492D02*
X282279D01*
X281000Y208213D02*
Y210772D01*
X279720Y243508D02*
X282279D01*
X281000Y242228D02*
Y244787D01*
X263264Y209492D02*
X265823D01*
X264543Y208213D02*
Y210772D01*
X263264Y243508D02*
X265823D01*
X264543Y242228D02*
Y244787D01*
X269100Y177000D02*
X271900D01*
X270500Y175600D02*
Y178400D01*
X129600Y148400D02*
X132400D01*
X131000Y147000D02*
Y149800D01*
X197300Y212000D02*
X200100D01*
X198700Y210600D02*
Y213400D01*
X159235Y180035D02*
X162035D01*
X160635Y178635D02*
Y181435D01*
X236900Y194400D02*
X239700D01*
X238300Y193000D02*
Y195800D01*
X252000Y217100D02*
X254800D01*
X253400Y215700D02*
Y218500D01*
X262100Y199300D02*
X264900D01*
X263500Y197900D02*
Y200700D01*
X272100Y138920D02*
X274900D01*
X273500Y137520D02*
Y140320D01*
X155000Y189909D02*
X157800D01*
X156400Y188509D02*
Y191309D01*
X197600Y224600D02*
X200400D01*
X199000Y223200D02*
Y226000D01*
M02*
