G04*
G04 #@! TF.GenerationSoftware,Altium Limited,Altium Designer,24.1.2 (44)*
G04*
G04 Layer_Color=32896*
%FSLAX25Y25*%
%MOIN*%
G70*
G04*
G04 #@! TF.SameCoordinates,C2AC8D72-DAC2-4925-AC6E-3273F7DC1B7E*
G04*
G04*
G04 #@! TF.FilePolarity,Positive*
G04*
G01*
G75*
%ADD10C,0.00787*%
%ADD13C,0.01000*%
%ADD14C,0.00500*%
%ADD70C,0.00800*%
D10*
X218394Y204941D02*
X217606D01*
X218394D01*
X213000Y207500D02*
X223000D01*
X213000Y247500D02*
X223000D01*
Y207500D02*
Y247500D01*
X213000Y207500D02*
Y247500D01*
X138000Y257500D02*
X142902D01*
Y197500D02*
Y257500D01*
X133098Y197500D02*
X142902D01*
X133098D02*
Y252500D01*
X223500Y128098D02*
Y137902D01*
Y128098D02*
X283500D01*
X223500Y137902D02*
X278500D01*
X283500Y128098D02*
Y133000D01*
D13*
X125000Y121000D02*
X285500D01*
X210000Y260500D02*
X285500D01*
X210000Y230000D02*
Y260500D01*
X147000Y230000D02*
X210000D01*
X147000D02*
Y260500D01*
X125000D02*
X147000D01*
X125000Y121000D02*
Y260500D01*
X184149Y194861D02*
Y190926D01*
X183361Y190139D01*
X181787D01*
X181000Y190926D01*
Y194861D01*
X179426Y190139D02*
X177851D01*
X178639D01*
Y194861D01*
X179426Y194074D01*
X131148Y183501D02*
Y187499D01*
X133148D01*
X133814Y186833D01*
Y185500D01*
X133148Y184834D01*
X131148D01*
X132481D02*
X133814Y183501D01*
X135147D02*
X136480D01*
X135814D01*
Y187499D01*
X135147Y186833D01*
X138479Y183501D02*
X139812D01*
X139146D01*
Y187499D01*
X138479Y186833D01*
X131002Y176501D02*
Y180499D01*
X133001D01*
X133667Y179833D01*
Y178500D01*
X133001Y177833D01*
X131002D01*
X132334D02*
X133667Y176501D01*
X135000D02*
X136333D01*
X135667D01*
Y180499D01*
X135000Y179833D01*
X138333D02*
X138999Y180499D01*
X140332D01*
X140998Y179833D01*
Y177167D01*
X140332Y176501D01*
X138999D01*
X138333Y177167D01*
Y179833D01*
X171168Y150501D02*
Y154499D01*
X173167D01*
X173834Y153833D01*
Y152500D01*
X173167Y151833D01*
X171168D01*
X172501D02*
X173834Y150501D01*
X175166Y153833D02*
X175833Y154499D01*
X177166D01*
X177832Y153833D01*
Y153166D01*
X177166Y152500D01*
X176499D01*
X177166D01*
X177832Y151833D01*
Y151167D01*
X177166Y150501D01*
X175833D01*
X175166Y151167D01*
X190168Y150501D02*
Y154499D01*
X192167D01*
X192833Y153833D01*
Y152500D01*
X192167Y151833D01*
X190168D01*
X191501D02*
X192833Y150501D01*
X196166D02*
Y154499D01*
X194167Y152500D01*
X196832D01*
X193001Y136501D02*
Y140499D01*
X195001D01*
X195667Y139833D01*
Y138500D01*
X195001Y137834D01*
X193001D01*
X194334D02*
X195667Y136501D01*
X197000D02*
X198333D01*
X197667D01*
Y140499D01*
X197000Y139833D01*
X202998Y136501D02*
X200332D01*
X202998Y139166D01*
Y139833D01*
X202332Y140499D01*
X200999D01*
X200332Y139833D01*
X163659Y136658D02*
Y140657D01*
X165658D01*
X166325Y139990D01*
Y138657D01*
X165658Y137991D01*
X163659D01*
X164992D02*
X166325Y136658D01*
X167658D02*
X168991D01*
X168324D01*
Y140657D01*
X167658Y139990D01*
X170990D02*
X171656Y140657D01*
X172989D01*
X173656Y139990D01*
Y139324D01*
X172989Y138657D01*
X172323D01*
X172989D01*
X173656Y137991D01*
Y137325D01*
X172989Y136658D01*
X171656D01*
X170990Y137325D01*
X153499Y156333D02*
Y155001D01*
Y155667D01*
X150167D01*
X149501Y155001D01*
Y154334D01*
X150167Y153668D01*
X152833Y157667D02*
X153499Y158333D01*
Y159666D01*
X152833Y160332D01*
X152166D01*
X151500Y159666D01*
Y158999D01*
Y159666D01*
X150833Y160332D01*
X150167D01*
X149501Y159666D01*
Y158333D01*
X150167Y157667D01*
X153499Y141833D02*
Y140501D01*
Y141167D01*
X150167D01*
X149501Y140501D01*
Y139834D01*
X150167Y139168D01*
X149501Y145166D02*
X153499D01*
X151500Y143166D01*
Y145832D01*
X261436Y183861D02*
Y179926D01*
X260649Y179139D01*
X259074D01*
X258287Y179926D01*
Y183861D01*
X253564Y179139D02*
X256713D01*
X253564Y182287D01*
Y183074D01*
X254351Y183861D01*
X255926D01*
X256713Y183074D01*
X219000Y255999D02*
X220999D01*
X219999D01*
Y251001D01*
X220999Y250001D01*
X221999D01*
X222998Y251001D01*
X213002Y255999D02*
X217000D01*
Y253000D01*
X215001Y254000D01*
X214001D01*
X213002Y253000D01*
Y251001D01*
X214001Y250001D01*
X216001D01*
X217000Y251001D01*
X237332Y208499D02*
Y205167D01*
X236666Y204501D01*
X235333D01*
X234666Y205167D01*
Y208499D01*
X233333Y207833D02*
X232667Y208499D01*
X231334D01*
X230668Y207833D01*
Y207166D01*
X231334Y206500D01*
X232001D01*
X231334D01*
X230668Y205834D01*
Y205167D01*
X231334Y204501D01*
X232667D01*
X233333Y205167D01*
X229666Y180667D02*
X230333Y180001D01*
X231666D01*
X232332Y180667D01*
Y183333D01*
X231666Y183999D01*
X230333D01*
X229666Y183333D01*
X228333Y180667D02*
X227667Y180001D01*
X226334D01*
X225668Y180667D01*
Y181333D01*
X226334Y182000D01*
X227001D01*
X226334D01*
X225668Y182667D01*
Y183333D01*
X226334Y183999D01*
X227667D01*
X228333Y183333D01*
X245999Y191332D02*
X242001D01*
Y189333D01*
X242667Y188666D01*
X244000D01*
X244666Y189333D01*
Y191332D01*
Y189999D02*
X245999Y188666D01*
X242001Y184668D02*
Y187334D01*
X244000D01*
X243334Y186001D01*
Y185334D01*
X244000Y184668D01*
X245333D01*
X245999Y185334D01*
Y186667D01*
X245333Y187334D01*
X245499Y173832D02*
X241501D01*
Y171833D01*
X242167Y171167D01*
X243500D01*
X244166Y171833D01*
Y173832D01*
Y172499D02*
X245499Y171167D01*
Y167168D02*
Y169834D01*
X242834Y167168D01*
X242167D01*
X241501Y167834D01*
Y169167D01*
X242167Y169834D01*
X136667Y194999D02*
X137999D01*
X137333D01*
Y191667D01*
X137999Y191001D01*
X138666D01*
X139332Y191667D01*
X132668Y191001D02*
X135334D01*
X132668Y193667D01*
Y194333D01*
X133334Y194999D01*
X134667D01*
X135334Y194333D01*
X218500Y134999D02*
X219833D01*
X219166D01*
Y131667D01*
X219833Y131001D01*
X220499D01*
X221166Y131667D01*
X217167Y131001D02*
X215834D01*
X216501D01*
Y134999D01*
X217167Y134333D01*
X272501Y227500D02*
Y229499D01*
Y228499D01*
X277499D01*
X278499Y229499D01*
Y230499D01*
X277499Y231498D01*
X272501Y225500D02*
Y221502D01*
X273501D01*
X277499Y225500D01*
X278499D01*
D14*
X291236Y208902D02*
Y244098D01*
X285902D02*
X291236D01*
X270035D02*
X276098D01*
X285902Y208902D02*
X291236D01*
X270035D02*
X276098D01*
D70*
X276666Y152001D02*
Y155999D01*
X274666D01*
X274000Y155333D01*
Y154000D01*
X274666Y153333D01*
X276666D01*
X275333D02*
X274000Y152001D01*
X272667D02*
X271334D01*
X272001D01*
Y155999D01*
X272667Y155333D01*
X254166Y152333D02*
X254833Y152999D01*
X256166D01*
X256832Y152333D01*
Y149667D01*
X256166Y149001D01*
X254833D01*
X254166Y149667D01*
X250168Y149001D02*
X252834D01*
X250168Y151666D01*
Y152333D01*
X250834Y152999D01*
X252167D01*
X252834Y152333D01*
X227220D02*
X227887Y152999D01*
X229220D01*
X229886Y152333D01*
Y149667D01*
X229220Y149001D01*
X227887D01*
X227220Y149667D01*
X225887Y149001D02*
X224555D01*
X225221D01*
Y152999D01*
X225887Y152333D01*
X274666Y147333D02*
X275333Y147999D01*
X276666D01*
X277332Y147333D01*
Y144667D01*
X276666Y144001D01*
X275333D01*
X274666Y144667D01*
X270668Y147999D02*
X273334D01*
Y146000D01*
X272001Y146667D01*
X271334D01*
X270668Y146000D01*
Y144667D01*
X271334Y144001D01*
X272667D01*
X273334Y144667D01*
X278166Y202499D02*
Y198501D01*
X276166D01*
X275500Y199167D01*
Y201833D01*
X276166Y202499D01*
X278166D01*
X274167Y198501D02*
X272834D01*
X273501D01*
Y202499D01*
X274167Y201833D01*
X254999Y209332D02*
X251001D01*
Y207333D01*
X251667Y206666D01*
X253000D01*
X253666Y207333D01*
Y209332D01*
Y207999D02*
X254999Y206666D01*
X251001Y202668D02*
X251667Y204001D01*
X253000Y205333D01*
X254333D01*
X254999Y204667D01*
Y203334D01*
X254333Y202668D01*
X253666D01*
X253000Y203334D01*
Y205333D01*
X250667Y230166D02*
X250001Y230833D01*
Y232166D01*
X250667Y232832D01*
X253333D01*
X253999Y232166D01*
Y230833D01*
X253333Y230166D01*
X253999Y226834D02*
X250001D01*
X252000Y228834D01*
Y226168D01*
X244999Y232832D02*
X241001D01*
Y230833D01*
X241667Y230166D01*
X243000D01*
X243666Y230833D01*
Y232832D01*
Y231499D02*
X244999Y230166D01*
X244333Y228834D02*
X244999Y228167D01*
Y226834D01*
X244333Y226168D01*
X241667D01*
X241001Y226834D01*
Y228167D01*
X241667Y228834D01*
X242334D01*
X243000Y228167D01*
Y226168D01*
X232166Y235499D02*
X233499D01*
X232833D01*
Y232167D01*
X233499Y231501D01*
X234166D01*
X234832Y232167D01*
X228168Y235499D02*
X229501Y234833D01*
X230834Y233500D01*
Y232167D01*
X230167Y231501D01*
X228834D01*
X228168Y232167D01*
Y232834D01*
X228834Y233500D01*
X230834D01*
X253999Y247332D02*
X250001D01*
Y245333D01*
X250667Y244666D01*
X252000D01*
X252666Y245333D01*
Y247332D01*
Y245999D02*
X253999Y244666D01*
X250001Y243334D02*
Y240668D01*
X250667D01*
X253333Y243334D01*
X253999D01*
X244999Y247332D02*
X241001D01*
Y245333D01*
X241667Y244666D01*
X243000D01*
X243666Y245333D01*
Y247332D01*
Y245999D02*
X244999Y244666D01*
X241667Y243334D02*
X241001Y242667D01*
Y241334D01*
X241667Y240668D01*
X242334D01*
X243000Y241334D01*
X243666Y240668D01*
X244333D01*
X244999Y241334D01*
Y242667D01*
X244333Y243334D01*
X243666D01*
X243000Y242667D01*
X242334Y243334D01*
X241667D01*
X243000Y242667D02*
Y241334D01*
M02*
