G04*
G04 #@! TF.GenerationSoftware,Altium Limited,Altium Designer,24.1.2 (44)*
G04*
G04 Layer_Color=8388736*
%FSLAX25Y25*%
%MOIN*%
G70*
G04*
G04 #@! TF.SameCoordinates,539E6247-A82E-4B89-B4FB-6AA9409DBF92*
G04*
G04*
G04 #@! TF.FilePolarity,Negative*
G04*
G01*
G75*
%ADD28R,0.10642X0.04737*%
%ADD29R,0.04737X0.07887*%
%ADD30R,0.04343X0.06509*%
%ADD31R,0.04540X0.07690*%
%ADD32R,0.13398X0.07690*%
%ADD33R,0.03000X0.05800*%
%ADD34R,0.10642X0.07099*%
%ADD35R,0.07099X0.10642*%
%ADD36R,0.06509X0.04343*%
%ADD37R,0.04343X0.05918*%
%ADD38R,0.05524X0.05524*%
%ADD39R,0.05918X0.04343*%
%ADD40C,0.09461*%
%ADD41R,0.06737X0.06737*%
%ADD42C,0.06737*%
%ADD43C,0.06194*%
%ADD44R,0.06194X0.06194*%
%ADD45R,0.06194X0.06194*%
%ADD46R,0.07591X0.07591*%
%ADD47C,0.07591*%
%ADD48R,0.07591X0.07591*%
%ADD49C,0.03359*%
%ADD50O,0.08083X0.04934*%
%ADD51O,0.09265X0.04934*%
%ADD52C,0.05800*%
D28*
X208421Y227280D02*
D03*
Y219406D02*
D03*
Y211532D02*
D03*
Y203657D02*
D03*
Y195783D02*
D03*
Y187909D02*
D03*
Y180035D02*
D03*
Y172161D02*
D03*
X148579D02*
D03*
Y180035D02*
D03*
Y187909D02*
D03*
Y195783D02*
D03*
Y203657D02*
D03*
Y211532D02*
D03*
Y219406D02*
D03*
Y227280D02*
D03*
D29*
X198185Y166256D02*
D03*
X190311D02*
D03*
X182437D02*
D03*
X174563D02*
D03*
X166689D02*
D03*
X158815D02*
D03*
D30*
X131500Y186000D02*
D03*
X138980D02*
D03*
Y176500D02*
D03*
X131500D02*
D03*
X171260Y152500D02*
D03*
X178740D02*
D03*
X190000D02*
D03*
X197480D02*
D03*
X270260Y154000D02*
D03*
X277740D02*
D03*
D31*
X255445Y166598D02*
D03*
X264500D02*
D03*
X273555D02*
D03*
D32*
X264500Y191402D02*
D03*
D33*
X230300Y201400D02*
D03*
X234000D02*
D03*
X237700D02*
D03*
Y211600D02*
D03*
X230300D02*
D03*
D34*
X246610Y151000D02*
D03*
X260390D02*
D03*
X234000D02*
D03*
X220220D02*
D03*
D35*
X229000Y189390D02*
D03*
Y175610D02*
D03*
D36*
X244000Y183760D02*
D03*
Y191240D02*
D03*
X243500Y166500D02*
D03*
Y173980D02*
D03*
X253000Y210240D02*
D03*
Y202760D02*
D03*
X243000Y225760D02*
D03*
Y233240D02*
D03*
X251711Y240260D02*
D03*
Y247740D02*
D03*
X243000D02*
D03*
Y240260D02*
D03*
D37*
X270500Y146000D02*
D03*
X277980D02*
D03*
D38*
X279500Y200500D02*
D03*
X271232D02*
D03*
D39*
X252000Y233240D02*
D03*
Y225760D02*
D03*
D40*
X132500Y128500D02*
D03*
X278000Y253500D02*
D03*
D41*
X208342Y140843D02*
D03*
X179000Y141000D02*
D03*
D42*
X198500Y131000D02*
D03*
X188657Y140843D02*
D03*
X169157Y131157D02*
D03*
X159315Y141000D02*
D03*
D43*
X133000Y157000D02*
D03*
X143000Y142000D02*
D03*
X218000Y222500D02*
D03*
Y232500D02*
D03*
Y242500D02*
D03*
X232139Y242000D02*
D03*
D44*
X143000Y157000D02*
D03*
X133000Y142000D02*
D03*
X218000Y212500D02*
D03*
D45*
X232139Y252000D02*
D03*
D46*
X138000Y252500D02*
D03*
D47*
Y242500D02*
D03*
Y232500D02*
D03*
Y222500D02*
D03*
Y212500D02*
D03*
Y202500D02*
D03*
X268500Y133000D02*
D03*
X258500D02*
D03*
X248500D02*
D03*
X238500D02*
D03*
X228500D02*
D03*
D48*
X278500D02*
D03*
D49*
X266512Y237878D02*
D03*
Y215122D02*
D03*
D50*
X281000Y209492D02*
D03*
Y243508D02*
D03*
D51*
X264543Y209492D02*
D03*
Y243508D02*
D03*
D52*
X270500Y177000D02*
D03*
X131000Y148400D02*
D03*
X198700Y212000D02*
D03*
X160635Y180035D02*
D03*
X238300Y194400D02*
D03*
X253400Y217100D02*
D03*
X263500Y199300D02*
D03*
X273500Y138920D02*
D03*
X156400Y189909D02*
D03*
X199000Y224600D02*
D03*
M02*
