G04*
G04 #@! TF.GenerationSoftware,Altium Limited,Altium Designer,24.1.2 (44)*
G04*
G04 Layer_Physical_Order=2*
G04 Layer_Color=16711680*
%FSLAX25Y25*%
%MOIN*%
G70*
G04*
G04 #@! TF.SameCoordinates,C2AC8D72-DAC2-4925-AC6E-3273F7DC1B7E*
G04*
G04*
G04 #@! TF.FilePolarity,Positive*
G04*
G01*
G75*
%ADD13C,0.01000*%
%ADD53C,0.08661*%
%ADD54R,0.05937X0.05937*%
%ADD55C,0.05937*%
%ADD56C,0.05394*%
%ADD57R,0.05394X0.05394*%
%ADD58R,0.05394X0.05394*%
%ADD59R,0.06791X0.06791*%
%ADD60C,0.06791*%
%ADD61R,0.06791X0.06791*%
%ADD62C,0.02559*%
%ADD63O,0.07284X0.04134*%
%ADD64O,0.08465X0.04134*%
%ADD65C,0.05000*%
%ADD66R,0.04528X0.02362*%
%ADD67R,0.04528X0.01181*%
G36*
X285000Y245207D02*
X284500Y245056D01*
X284349Y245282D01*
X283535Y245826D01*
X282575Y246017D01*
X279425D01*
X278465Y245826D01*
X277651Y245282D01*
X277107Y244468D01*
X276916Y243508D01*
X277107Y242548D01*
X277651Y241734D01*
X278465Y241190D01*
X279425Y240999D01*
X282575D01*
X283535Y241190D01*
X284349Y241734D01*
X284500Y241960D01*
X285000Y241808D01*
Y211192D01*
X284500Y211040D01*
X284349Y211266D01*
X283535Y211810D01*
X282575Y212001D01*
X279425D01*
X278465Y211810D01*
X277651Y211266D01*
X277107Y210452D01*
X276916Y209492D01*
X277107Y208532D01*
X277651Y207718D01*
X278465Y207174D01*
X279425Y206983D01*
X282575D01*
X283535Y207174D01*
X284349Y207718D01*
X284500Y207944D01*
X285000Y207793D01*
Y121500D01*
X125500D01*
Y260000D01*
X146500D01*
Y229500D01*
X210047D01*
X210304Y229500D01*
X210519Y229008D01*
X207023Y225511D01*
X202410D01*
X202410Y225514D01*
X202057Y226365D01*
X201496Y227096D01*
X200765Y227657D01*
X199914Y228010D01*
X199000Y228130D01*
X198086Y228010D01*
X197235Y227657D01*
X196504Y227096D01*
X195943Y226365D01*
X195590Y225514D01*
X195470Y224600D01*
X195590Y223686D01*
X195943Y222835D01*
X196174Y222533D01*
X195928Y222033D01*
X187613D01*
X187264Y221964D01*
X186969Y221766D01*
X158167Y192965D01*
X158165Y192967D01*
X157314Y193319D01*
X156400Y193440D01*
X155486Y193319D01*
X154635Y192967D01*
X153904Y192406D01*
X153343Y191674D01*
X152990Y190823D01*
X152870Y189909D01*
X152990Y188996D01*
X153343Y188144D01*
X153904Y187413D01*
X154635Y186852D01*
X155486Y186500D01*
X156400Y186379D01*
X157314Y186500D01*
X158165Y186852D01*
X158896Y187413D01*
X159457Y188144D01*
X159810Y188996D01*
X159930Y189909D01*
X159810Y190823D01*
X159457Y191674D01*
X159456Y191676D01*
X187990Y220211D01*
X206622D01*
X206971Y220280D01*
X207266Y220478D01*
X216546Y229757D01*
X217193Y229489D01*
X218000Y229383D01*
X218807Y229489D01*
X219559Y229800D01*
X220204Y230296D01*
X220700Y230941D01*
X221011Y231693D01*
X221117Y232500D01*
X221011Y233307D01*
X220700Y234059D01*
X220216Y234689D01*
X220243Y234871D01*
X220351Y235189D01*
X221223D01*
X255589Y200823D01*
Y145000D01*
X255658Y144651D01*
X255856Y144356D01*
X265238Y134974D01*
X265190Y134911D01*
X264808Y133989D01*
X264678Y133000D01*
X264808Y132011D01*
X265190Y131089D01*
X265797Y130297D01*
X266040Y130111D01*
X265870Y129611D01*
X261130D01*
X260960Y130111D01*
X261203Y130297D01*
X261810Y131089D01*
X262192Y132011D01*
X262322Y133000D01*
X262192Y133989D01*
X261810Y134911D01*
X261203Y135703D01*
X260411Y136310D01*
X259489Y136692D01*
X258500Y136822D01*
X257511Y136692D01*
X256589Y136310D01*
X256526Y136262D01*
X199611Y193177D01*
Y208590D01*
X199614Y208590D01*
X200465Y208943D01*
X201196Y209504D01*
X201757Y210235D01*
X202110Y211086D01*
X202230Y212000D01*
X202110Y212914D01*
X201757Y213765D01*
X201196Y214496D01*
X200465Y215057D01*
X199614Y215410D01*
X198700Y215530D01*
X198039Y215443D01*
X197805Y215917D01*
X198177Y216289D01*
X212700D01*
X213049Y216358D01*
X213344Y216556D01*
X216546Y219757D01*
X217193Y219489D01*
X218000Y219383D01*
X218807Y219489D01*
X219559Y219800D01*
X220204Y220296D01*
X220700Y220941D01*
X221011Y221693D01*
X221117Y222500D01*
X221011Y223307D01*
X220700Y224059D01*
X220204Y224704D01*
X219559Y225200D01*
X218807Y225511D01*
X218000Y225617D01*
X217193Y225511D01*
X216441Y225200D01*
X215796Y224704D01*
X215300Y224059D01*
X214989Y223307D01*
X214883Y222500D01*
X214989Y221693D01*
X215257Y221046D01*
X212323Y218111D01*
X197800D01*
X197451Y218042D01*
X197156Y217844D01*
X162402Y183091D01*
X162400Y183093D01*
X161549Y183445D01*
X160635Y183566D01*
X159722Y183445D01*
X158870Y183093D01*
X158139Y182532D01*
X157578Y181800D01*
X157226Y180949D01*
X157105Y180035D01*
X157226Y179122D01*
X157578Y178270D01*
X158139Y177539D01*
X158870Y176978D01*
X159722Y176626D01*
X160635Y176505D01*
X161549Y176626D01*
X162400Y176978D01*
X163132Y177539D01*
X163693Y178270D01*
X164045Y179122D01*
X164166Y180035D01*
X164045Y180949D01*
X163693Y181800D01*
X163691Y181802D01*
X194783Y212895D01*
X195257Y212661D01*
X195170Y212000D01*
X195290Y211086D01*
X195643Y210235D01*
X196204Y209504D01*
X196935Y208943D01*
X197786Y208590D01*
X197789Y208590D01*
Y192800D01*
X197858Y192451D01*
X198056Y192156D01*
X255238Y134974D01*
X255190Y134911D01*
X254808Y133989D01*
X254678Y133000D01*
X254808Y132011D01*
X255190Y131089D01*
X255797Y130297D01*
X256040Y130111D01*
X255870Y129611D01*
X251130D01*
X250960Y130111D01*
X251203Y130297D01*
X251810Y131089D01*
X252192Y132011D01*
X252322Y133000D01*
X252192Y133989D01*
X251810Y134911D01*
X251203Y135703D01*
X250411Y136310D01*
X249489Y136692D01*
X248500Y136822D01*
X247511Y136692D01*
X246589Y136310D01*
X245797Y135703D01*
X245190Y134911D01*
X244808Y133989D01*
X244678Y133000D01*
X244808Y132011D01*
X245190Y131089D01*
X245797Y130297D01*
X246040Y130111D01*
X245870Y129611D01*
X241130D01*
X240960Y130111D01*
X241203Y130297D01*
X241810Y131089D01*
X242192Y132011D01*
X242322Y133000D01*
X242192Y133989D01*
X241810Y134911D01*
X241203Y135703D01*
X240411Y136310D01*
X239489Y136692D01*
X238500Y136822D01*
X237511Y136692D01*
X236589Y136310D01*
X235797Y135703D01*
X235190Y134911D01*
X234808Y133989D01*
X234678Y133000D01*
X234808Y132011D01*
X235190Y131089D01*
X235797Y130297D01*
X236040Y130111D01*
X235870Y129611D01*
X233177D01*
X232194Y130594D01*
X232340Y130783D01*
X232783Y131852D01*
X232868Y132500D01*
X229000D01*
Y128632D01*
X229647Y128718D01*
X230717Y129160D01*
X230906Y129306D01*
X232156Y128056D01*
X232451Y127858D01*
X232800Y127789D01*
X282800D01*
X283149Y127858D01*
X283444Y128056D01*
X283642Y128351D01*
X283711Y128700D01*
Y138700D01*
X283642Y139049D01*
X283444Y139344D01*
X260311Y162477D01*
Y196885D01*
X260811Y197055D01*
X261004Y196804D01*
X261735Y196243D01*
X262586Y195890D01*
X263500Y195770D01*
X264414Y195890D01*
X265265Y196243D01*
X265267Y196244D01*
X270689Y190823D01*
Y185569D01*
X269856Y184736D01*
X269658Y184440D01*
X269589Y184091D01*
Y180410D01*
X269586Y180410D01*
X268735Y180057D01*
X268004Y179496D01*
X267443Y178765D01*
X267090Y177914D01*
X266970Y177000D01*
X267090Y176086D01*
X267443Y175235D01*
X268004Y174504D01*
X268735Y173943D01*
X269586Y173590D01*
X270500Y173470D01*
X271414Y173590D01*
X272265Y173943D01*
X272996Y174504D01*
X273557Y175235D01*
X273910Y176086D01*
X274030Y177000D01*
X273910Y177914D01*
X273557Y178765D01*
X272996Y179496D01*
X272265Y180057D01*
X271414Y180410D01*
X271411Y180410D01*
Y183714D01*
X272244Y184547D01*
X272442Y184843D01*
X272511Y185191D01*
Y191200D01*
X272442Y191549D01*
X272244Y191844D01*
X266556Y197533D01*
X266557Y197535D01*
X266910Y198386D01*
X267030Y199300D01*
X266910Y200214D01*
X266557Y201065D01*
X266556Y201067D01*
X273744Y208256D01*
X273942Y208551D01*
X274011Y208900D01*
Y249500D01*
X273942Y249849D01*
X273897Y249916D01*
X274303Y250207D01*
X274479Y249979D01*
X275510Y249187D01*
X276711Y248690D01*
X278000Y248520D01*
X279289Y248690D01*
X280490Y249187D01*
X281521Y249979D01*
X282312Y251010D01*
X282810Y252211D01*
X282980Y253500D01*
X282810Y254789D01*
X282312Y255990D01*
X281521Y257021D01*
X280490Y257812D01*
X279289Y258310D01*
X278000Y258480D01*
X276711Y258310D01*
X275510Y257812D01*
X274479Y257021D01*
X273688Y255990D01*
X273190Y254789D01*
X273020Y253500D01*
X273190Y252211D01*
X273688Y251010D01*
X274024Y250572D01*
X273647Y250242D01*
X273590Y250298D01*
X271244Y252644D01*
X270949Y252842D01*
X270600Y252911D01*
X235230D01*
Y255090D01*
X229049D01*
Y248909D01*
X235230D01*
Y251089D01*
X270223D01*
X272189Y249123D01*
Y209277D01*
X265267Y202356D01*
X265265Y202357D01*
X264414Y202710D01*
X263500Y202830D01*
X262586Y202710D01*
X261735Y202357D01*
X261004Y201796D01*
X260811Y201545D01*
X260311Y201715D01*
Y207325D01*
X260811Y207580D01*
X261418Y207174D01*
X262378Y206983D01*
X266709D01*
X267669Y207174D01*
X268483Y207718D01*
X269027Y208532D01*
X269218Y209492D01*
X269027Y210452D01*
X268483Y211266D01*
X267669Y211810D01*
X266709Y212001D01*
X265619D01*
X265617Y212501D01*
X266083Y212883D01*
X266512Y212798D01*
X267401Y212975D01*
X268155Y213478D01*
X268659Y214233D01*
X268836Y215122D01*
X268659Y216011D01*
X268155Y216765D01*
X267401Y217269D01*
X266512Y217446D01*
X265622Y217269D01*
X265418Y217132D01*
X264977Y217368D01*
Y220094D01*
X264977Y220594D01*
X264977D01*
Y220595D01*
X264977D01*
Y224032D01*
X264977Y224531D01*
X264977D01*
Y224532D01*
X264977D01*
Y227969D01*
X264977Y228468D01*
X264977D01*
Y228469D01*
X264977D01*
Y231906D01*
X264977Y232405D01*
X264977D01*
Y232406D01*
X264977D01*
Y235632D01*
X265418Y235868D01*
X265622Y235731D01*
X266512Y235554D01*
X267401Y235731D01*
X268155Y236234D01*
X268659Y236989D01*
X268836Y237878D01*
X268659Y238767D01*
X268155Y239522D01*
X267401Y240025D01*
X266512Y240202D01*
X266083Y240117D01*
X265617Y240499D01*
X265619Y240999D01*
X266709D01*
X267669Y241190D01*
X268483Y241734D01*
X269027Y242548D01*
X269218Y243508D01*
X269027Y244468D01*
X268483Y245282D01*
X267669Y245826D01*
X266709Y246017D01*
X262378D01*
X261418Y245826D01*
X260604Y245282D01*
X260060Y244468D01*
X259869Y243508D01*
X260060Y242548D01*
X260574Y241779D01*
X260452Y241280D01*
X259055D01*
Y240010D01*
X235858D01*
X235524Y240510D01*
X235741Y241035D01*
X235802Y241500D01*
X232139D01*
Y242000D01*
X231639D01*
Y245663D01*
X231174Y245602D01*
X230275Y245229D01*
X229503Y244637D01*
X228910Y243864D01*
X228538Y242965D01*
X228531Y242911D01*
X225677D01*
X225444Y243144D01*
X225149Y243342D01*
X224800Y243411D01*
X221609D01*
X221602Y243465D01*
X221229Y244364D01*
X220637Y245137D01*
X219864Y245729D01*
X218965Y246102D01*
X218500Y246163D01*
Y242500D01*
Y238837D01*
X218965Y238898D01*
X219864Y239271D01*
X220637Y239863D01*
X221229Y240636D01*
X221602Y241535D01*
X221609Y241589D01*
X224423D01*
X224656Y241356D01*
X224951Y241158D01*
X225300Y241089D01*
X228531D01*
X228538Y241035D01*
X228910Y240136D01*
X229503Y239363D01*
X230275Y238771D01*
X231174Y238398D01*
X231228Y238391D01*
Y232361D01*
X231298Y232012D01*
X231495Y231716D01*
X251356Y211856D01*
X251651Y211658D01*
X252000Y211589D01*
X258489D01*
Y162100D01*
X258558Y161751D01*
X258756Y161456D01*
X281889Y138323D01*
Y136789D01*
X276845D01*
X276613Y137289D01*
X276910Y138006D01*
X276964Y138420D01*
X270036D01*
X270090Y138006D01*
X270443Y137154D01*
X270888Y136574D01*
X270531Y136218D01*
X270411Y136310D01*
X269489Y136692D01*
X268500Y136822D01*
X267511Y136692D01*
X266589Y136310D01*
X266527Y136262D01*
X257411Y145377D01*
Y201200D01*
X257342Y201549D01*
X257144Y201844D01*
X222244Y236744D01*
X221949Y236942D01*
X221600Y237011D01*
X216500D01*
X216151Y236942D01*
X215856Y236744D01*
X213756Y234644D01*
X213558Y234349D01*
X213489Y234000D01*
Y231977D01*
X210992Y229481D01*
X210500Y229696D01*
X210500Y229919D01*
Y260000D01*
X285000D01*
Y245207D01*
D02*
G37*
%LPC*%
G36*
X141789Y256289D02*
X134211D01*
Y248711D01*
X141789D01*
Y256289D01*
D02*
G37*
G36*
X217500Y246163D02*
X217035Y246102D01*
X216136Y245729D01*
X215363Y245137D01*
X214771Y244364D01*
X214398Y243465D01*
X214337Y243000D01*
X217500D01*
Y246163D01*
D02*
G37*
G36*
X232639Y245663D02*
Y242500D01*
X235802D01*
X235741Y242965D01*
X235369Y243864D01*
X234776Y244637D01*
X234004Y245229D01*
X233104Y245602D01*
X232639Y245663D01*
D02*
G37*
G36*
X217500Y242000D02*
X214337D01*
X214398Y241535D01*
X214771Y240636D01*
X215363Y239863D01*
X216136Y239271D01*
X217035Y238898D01*
X217500Y238837D01*
Y242000D01*
D02*
G37*
G36*
X138000Y246322D02*
X137011Y246192D01*
X136089Y245810D01*
X135297Y245203D01*
X134690Y244411D01*
X134308Y243489D01*
X134178Y242500D01*
X134308Y241511D01*
X134690Y240589D01*
X135297Y239797D01*
X136089Y239190D01*
X137011Y238808D01*
X138000Y238678D01*
X138989Y238808D01*
X139911Y239190D01*
X140703Y239797D01*
X141310Y240589D01*
X141692Y241511D01*
X141822Y242500D01*
X141692Y243489D01*
X141310Y244411D01*
X140703Y245203D01*
X139911Y245810D01*
X138989Y246192D01*
X138000Y246322D01*
D02*
G37*
G36*
Y236322D02*
X137011Y236192D01*
X136089Y235810D01*
X135297Y235203D01*
X134690Y234411D01*
X134308Y233489D01*
X134178Y232500D01*
X134308Y231511D01*
X134690Y230589D01*
X135297Y229797D01*
X136089Y229190D01*
X137011Y228808D01*
X138000Y228678D01*
X138989Y228808D01*
X139911Y229190D01*
X140703Y229797D01*
X141310Y230589D01*
X141692Y231511D01*
X141822Y232500D01*
X141692Y233489D01*
X141310Y234411D01*
X140703Y235203D01*
X139911Y235810D01*
X138989Y236192D01*
X138000Y236322D01*
D02*
G37*
G36*
Y226322D02*
X137011Y226192D01*
X136089Y225810D01*
X135297Y225203D01*
X134690Y224411D01*
X134308Y223489D01*
X134178Y222500D01*
X134308Y221511D01*
X134690Y220589D01*
X135297Y219797D01*
X136089Y219190D01*
X137011Y218808D01*
X138000Y218678D01*
X138989Y218808D01*
X139911Y219190D01*
X140703Y219797D01*
X141310Y220589D01*
X141692Y221511D01*
X141822Y222500D01*
X141692Y223489D01*
X141310Y224411D01*
X140703Y225203D01*
X139911Y225810D01*
X138989Y226192D01*
X138000Y226322D01*
D02*
G37*
G36*
Y216322D02*
X137011Y216192D01*
X136089Y215810D01*
X135297Y215203D01*
X134690Y214411D01*
X134308Y213489D01*
X134178Y212500D01*
X134308Y211511D01*
X134690Y210589D01*
X135297Y209797D01*
X136089Y209190D01*
X137011Y208808D01*
X138000Y208678D01*
X138989Y208808D01*
X139911Y209190D01*
X140703Y209797D01*
X141310Y210589D01*
X141692Y211511D01*
X141822Y212500D01*
X141692Y213489D01*
X141310Y214411D01*
X140703Y215203D01*
X139911Y215810D01*
X138989Y216192D01*
X138000Y216322D01*
D02*
G37*
G36*
X221091Y215591D02*
X214910D01*
Y209409D01*
X219802D01*
X234775Y194437D01*
X234770Y194400D01*
X234890Y193486D01*
X235243Y192635D01*
X235804Y191904D01*
X236535Y191343D01*
X237386Y190990D01*
X238300Y190870D01*
X239214Y190990D01*
X240065Y191343D01*
X240796Y191904D01*
X241357Y192635D01*
X241710Y193486D01*
X241830Y194400D01*
X241710Y195314D01*
X241357Y196165D01*
X240796Y196896D01*
X240065Y197457D01*
X239214Y197810D01*
X238300Y197930D01*
X237386Y197810D01*
X236535Y197457D01*
X235804Y196896D01*
X235639Y196681D01*
X235140Y196649D01*
X221091Y210698D01*
Y215591D01*
D02*
G37*
G36*
X138000Y206322D02*
X137011Y206192D01*
X136089Y205810D01*
X135297Y205203D01*
X134690Y204411D01*
X134308Y203489D01*
X134178Y202500D01*
X134308Y201511D01*
X134690Y200589D01*
X134738Y200526D01*
X128756Y194544D01*
X128558Y194249D01*
X128489Y193900D01*
Y155000D01*
X128558Y154651D01*
X128756Y154356D01*
X130714Y152397D01*
X130535Y151869D01*
X130086Y151810D01*
X129235Y151457D01*
X128504Y150896D01*
X127943Y150165D01*
X127590Y149314D01*
X127536Y148900D01*
X131000D01*
Y147900D01*
X127536D01*
X127590Y147486D01*
X127943Y146635D01*
X128504Y145904D01*
X129235Y145343D01*
X129909Y145063D01*
Y138909D01*
X134802D01*
X135711Y138001D01*
Y135702D01*
X135780Y135353D01*
X135977Y135058D01*
X140522Y130513D01*
X140818Y130316D01*
X141166Y130246D01*
X165896D01*
X166220Y129462D01*
X166759Y128759D01*
X167462Y128220D01*
X168280Y127882D01*
X169157Y127766D01*
X170035Y127882D01*
X170853Y128220D01*
X171555Y128759D01*
X172094Y129462D01*
X172433Y130280D01*
X172549Y131157D01*
X172433Y132035D01*
X172094Y132853D01*
X171555Y133555D01*
X170853Y134094D01*
X170035Y134433D01*
X169157Y134549D01*
X168280Y134433D01*
X167462Y134094D01*
X166759Y133555D01*
X166220Y132853D01*
X165896Y132069D01*
X141544D01*
X138586Y135027D01*
X138777Y135489D01*
X177223D01*
X187356Y125356D01*
X187651Y125158D01*
X188000Y125089D01*
X221500D01*
X221849Y125158D01*
X222144Y125356D01*
X226094Y129306D01*
X226283Y129160D01*
X227352Y128718D01*
X228000Y128632D01*
Y132500D01*
X224132D01*
X224218Y131852D01*
X224660Y130783D01*
X224805Y130594D01*
X221123Y126911D01*
X188377D01*
X178244Y137044D01*
X178104Y137138D01*
X178256Y137638D01*
X182362D01*
Y144362D01*
X176926D01*
X174844Y146444D01*
X174549Y146642D01*
X174200Y146711D01*
X155400D01*
X155051Y146642D01*
X154756Y146444D01*
X147623Y139311D01*
X145351D01*
X145243Y139629D01*
X145216Y139811D01*
X145700Y140441D01*
X146011Y141193D01*
X146117Y142000D01*
X146011Y142807D01*
X145743Y143454D01*
X150477Y148189D01*
X180023D01*
X185707Y142505D01*
X185382Y141720D01*
X185266Y140843D01*
X185382Y139965D01*
X185721Y139147D01*
X186259Y138445D01*
X186962Y137906D01*
X187780Y137567D01*
X188657Y137451D01*
X189535Y137567D01*
X190353Y137906D01*
X191055Y138445D01*
X191594Y139147D01*
X191933Y139965D01*
X192049Y140843D01*
X191933Y141720D01*
X191594Y142538D01*
X191055Y143241D01*
X190353Y143780D01*
X189535Y144118D01*
X188657Y144234D01*
X187780Y144118D01*
X186995Y143793D01*
X181044Y149744D01*
X180749Y149942D01*
X180400Y150011D01*
X150100D01*
X149751Y149942D01*
X149456Y149744D01*
X144454Y144743D01*
X143807Y145011D01*
X143000Y145117D01*
X142193Y145011D01*
X141441Y144700D01*
X140821Y144223D01*
X140648Y144251D01*
X140321Y144363D01*
Y144991D01*
X140251Y145339D01*
X140054Y145635D01*
X132206Y153483D01*
X132439Y153957D01*
X133000Y153883D01*
X133807Y153989D01*
X134454Y154257D01*
X137156Y151556D01*
X137451Y151358D01*
X137800Y151289D01*
X193923D01*
X197589Y147623D01*
Y134262D01*
X196804Y133937D01*
X196102Y133398D01*
X195563Y132696D01*
X195224Y131878D01*
X195109Y131000D01*
X195224Y130122D01*
X195563Y129304D01*
X196102Y128602D01*
X196804Y128063D01*
X197622Y127724D01*
X198500Y127609D01*
X199378Y127724D01*
X200196Y128063D01*
X200898Y128602D01*
X201437Y129304D01*
X201776Y130122D01*
X201891Y131000D01*
X201776Y131878D01*
X201437Y132696D01*
X200898Y133398D01*
X200196Y133937D01*
X199411Y134262D01*
Y148000D01*
X199342Y148349D01*
X199144Y148644D01*
X194944Y152844D01*
X194649Y153042D01*
X194300Y153111D01*
X138177D01*
X135743Y155546D01*
X136011Y156193D01*
X136117Y157000D01*
X136011Y157807D01*
X135700Y158559D01*
X135204Y159204D01*
X134559Y159700D01*
X133807Y160011D01*
X133000Y160117D01*
X132193Y160011D01*
X131441Y159700D01*
X130811Y159216D01*
X130629Y159242D01*
X130311Y159351D01*
Y193523D01*
X136027Y199238D01*
X136089Y199190D01*
X137011Y198808D01*
X138000Y198678D01*
X138989Y198808D01*
X139911Y199190D01*
X139973Y199238D01*
X142089Y197123D01*
Y160091D01*
X139909D01*
Y153909D01*
X146091D01*
Y160091D01*
X143911D01*
Y197500D01*
X143842Y197849D01*
X143644Y198144D01*
X141262Y200526D01*
X141310Y200589D01*
X141692Y201511D01*
X141822Y202500D01*
X141692Y203489D01*
X141310Y204411D01*
X140703Y205203D01*
X139911Y205810D01*
X138989Y206192D01*
X138000Y206322D01*
D02*
G37*
G36*
X274000Y142384D02*
Y139420D01*
X276964D01*
X276910Y139833D01*
X276557Y140685D01*
X275996Y141416D01*
X275265Y141977D01*
X274414Y142330D01*
X274000Y142384D01*
D02*
G37*
G36*
X273000D02*
X272586Y142330D01*
X271735Y141977D01*
X271004Y141416D01*
X270443Y140685D01*
X270090Y139833D01*
X270036Y139420D01*
X273000D01*
Y142384D01*
D02*
G37*
G36*
X211705Y144205D02*
X204980D01*
Y137480D01*
X211705D01*
Y144205D01*
D02*
G37*
G36*
X229000Y137368D02*
Y133500D01*
X232868D01*
X232783Y134148D01*
X232340Y135217D01*
X231635Y136135D01*
X230717Y136840D01*
X229647Y137283D01*
X229000Y137368D01*
D02*
G37*
G36*
X228000D02*
X227352Y137283D01*
X226283Y136840D01*
X225365Y136135D01*
X224660Y135217D01*
X224218Y134148D01*
X224132Y133500D01*
X228000D01*
Y137368D01*
D02*
G37*
G36*
X132500Y133480D02*
X131211Y133310D01*
X130010Y132812D01*
X128979Y132021D01*
X128188Y130990D01*
X127690Y129789D01*
X127520Y128500D01*
X127690Y127211D01*
X128188Y126010D01*
X128979Y124979D01*
X130010Y124188D01*
X131211Y123690D01*
X132500Y123520D01*
X133789Y123690D01*
X134990Y124188D01*
X136021Y124979D01*
X136812Y126010D01*
X137310Y127211D01*
X137480Y128500D01*
X137310Y129789D01*
X136812Y130990D01*
X136021Y132021D01*
X134990Y132812D01*
X133789Y133310D01*
X132500Y133480D01*
D02*
G37*
%LPD*%
D13*
X270500Y184091D02*
X271600Y185191D01*
X270500Y177000D02*
Y184091D01*
X271600Y185191D02*
Y191200D01*
X263500Y199300D02*
X271600Y191200D01*
X260400Y212500D02*
Y213902D01*
X262319D01*
X259400D02*
X260400D01*
X259400Y212500D02*
X260400D01*
X252000D02*
X259400D01*
Y213902D01*
Y162100D02*
Y212500D01*
X272200Y128700D02*
X282800D01*
X253449Y217051D02*
X259100D01*
X174200Y145800D02*
X179000Y141000D01*
X155400Y145800D02*
X174200D01*
X148000Y138400D02*
X155400Y145800D01*
X141000Y138400D02*
X148000D01*
X139409Y139991D02*
X141000Y138400D01*
X139409Y139991D02*
Y144991D01*
X129400Y155000D02*
X139409Y144991D01*
X129400Y155000D02*
Y193900D01*
X138000Y202500D01*
X221500Y126000D02*
X228500Y133000D01*
X188000Y126000D02*
X221500D01*
X177600Y136400D02*
X188000Y126000D01*
X138122Y136400D02*
X177600D01*
X138016Y136506D02*
X138122Y136400D01*
X138016Y136506D02*
Y144384D01*
X134000Y148400D02*
X138016Y144384D01*
X131000Y148400D02*
X134000D01*
X198700Y192800D02*
X258500Y133000D01*
X198700Y192800D02*
Y212000D01*
X212700Y217200D02*
X218000Y222500D01*
X197800Y217200D02*
X212700D01*
X160635Y180035D02*
X197800Y217200D01*
X218000Y212500D02*
X236100Y194400D01*
X238300D01*
X141166Y131157D02*
X169157D01*
X136622Y135702D02*
X141166Y131157D01*
X136622Y135702D02*
Y138378D01*
X133000Y142000D02*
X136622Y138378D01*
X253400Y217100D02*
X253449Y217051D01*
X228500Y133000D02*
X232800Y128700D01*
X282800D02*
Y138700D01*
X259400Y162100D02*
X282800Y138700D01*
X232139Y232361D02*
X252000Y212500D01*
X232139Y232361D02*
Y242000D01*
X263500Y199300D02*
X273100Y208900D01*
Y249500D01*
X270600Y252000D02*
X273100Y249500D01*
X232139Y252000D02*
X270600D01*
X232800Y128700D02*
X272200D01*
X273500Y130000D01*
Y138920D01*
X259100Y235949D02*
X262319D01*
X259100Y217051D02*
Y235949D01*
Y217051D02*
X262319D01*
X235041Y239098D02*
X262319D01*
X232139Y242000D02*
X235041Y239098D01*
X156400Y189909D02*
X187613Y221122D01*
X206622D01*
X218000Y232500D01*
X199000Y224600D02*
X207400D01*
X214400Y231600D01*
Y234000D01*
X216500Y236100D01*
X221600D01*
X256500Y201200D01*
Y145000D02*
Y201200D01*
Y145000D02*
X268500Y133000D01*
X143000Y157000D02*
Y197500D01*
X138000Y202500D02*
X143000Y197500D01*
X198500Y131000D02*
Y148000D01*
X194300Y152200D02*
X198500Y148000D01*
X137800Y152200D02*
X194300D01*
X133000Y157000D02*
X137800Y152200D01*
X180400Y149100D02*
X188657Y140843D01*
X150100Y149100D02*
X180400D01*
X143000Y142000D02*
X150100Y149100D01*
X225300Y242000D02*
X232139D01*
X224800Y242500D02*
X225300Y242000D01*
X218000Y242500D02*
X224800D01*
D53*
X132500Y128500D02*
D03*
X278000Y253500D02*
D03*
D54*
X208342Y140843D02*
D03*
X179000Y141000D02*
D03*
D55*
X198500Y131000D02*
D03*
X188657Y140843D02*
D03*
X169157Y131157D02*
D03*
X159315Y141000D02*
D03*
D56*
X133000Y157000D02*
D03*
X143000Y142000D02*
D03*
X218000Y222500D02*
D03*
Y232500D02*
D03*
Y242500D02*
D03*
X232139Y242000D02*
D03*
D57*
X143000Y157000D02*
D03*
X133000Y142000D02*
D03*
X218000Y212500D02*
D03*
D58*
X232139Y252000D02*
D03*
D59*
X138000Y252500D02*
D03*
D60*
Y242500D02*
D03*
Y232500D02*
D03*
Y222500D02*
D03*
Y212500D02*
D03*
Y202500D02*
D03*
X268500Y133000D02*
D03*
X258500D02*
D03*
X248500D02*
D03*
X238500D02*
D03*
X228500D02*
D03*
D61*
X278500D02*
D03*
D62*
X266512Y237878D02*
D03*
Y215122D02*
D03*
D63*
X281000Y209492D02*
D03*
Y243508D02*
D03*
D64*
X264543Y209492D02*
D03*
Y243508D02*
D03*
D65*
X270500Y177000D02*
D03*
X131000Y148400D02*
D03*
X198700Y212000D02*
D03*
X160635Y180035D02*
D03*
X238300Y194400D02*
D03*
X253400Y217100D02*
D03*
X263500Y199300D02*
D03*
X273500Y138920D02*
D03*
X156400Y189909D02*
D03*
X199000Y224600D02*
D03*
D66*
X262319Y213902D02*
D03*
Y217051D02*
D03*
Y235949D02*
D03*
Y239098D02*
D03*
D67*
Y219610D02*
D03*
Y221579D02*
D03*
Y223547D02*
D03*
Y225516D02*
D03*
Y227484D02*
D03*
Y229453D02*
D03*
Y231421D02*
D03*
Y233390D02*
D03*
M02*
