M48
;Layer_Color=9474304
;FILE_FORMAT=2:4
INCH,TZ
;TYPE=PLATED
T02F00S00C0.0280
T03F00S00C0.0394
T04F00S00C0.0402
T05F00S00C0.0453
T06F00S00C0.0787
;TYPE=NON_PLATED
T07F00S00C0.0256
%
T02
X13100Y14840
X27350Y13892
X27050Y17700
X26350Y19930
X25340Y21710
X23830Y19440
X19870Y21200
X19900Y22460
X15640Y18991
X16064Y18004
T03
X16916Y13116
X17900Y14100
X18866Y14084
X20834
X19850Y13100
X15931Y14100
T04
X13300Y14200
X14300
X21800Y21250
Y22250
Y23250
Y24250
X23214Y24200
Y25200
X14300Y15700
X13300
T05
X22850Y13300
X23850
X24850
X25850
X26850
X27850
X13800Y20250
Y21250
Y22250
Y23250
Y24250
Y25250
T06
X13250Y12850
X27800Y25350
T07
X26651Y21512
Y23788
M30
