G04*
G04 #@! TF.GenerationSoftware,Altium Limited,Altium Designer,24.1.2 (44)*
G04*
G04 Layer_Color=8421504*
%FSLAX25Y25*%
%MOIN*%
G70*
G04*
G04 #@! TF.SameCoordinates,539E6247-A82E-4B89-B4FB-6AA9409DBF92*
G04*
G04*
G04 #@! TF.FilePolarity,Positive*
G04*
G01*
G75*
%ADD16R,0.09843X0.03937*%
%ADD17R,0.03937X0.07087*%
%ADD18R,0.03543X0.05709*%
%ADD19R,0.03740X0.06890*%
%ADD20R,0.12598X0.06890*%
%ADD21R,0.02200X0.05000*%
%ADD22R,0.09843X0.06299*%
%ADD23R,0.06299X0.09843*%
%ADD24R,0.05709X0.03543*%
%ADD25R,0.03543X0.05118*%
%ADD26R,0.04724X0.04724*%
%ADD27R,0.05118X0.03543*%
D16*
X208421Y227280D02*
D03*
Y219406D02*
D03*
Y211532D02*
D03*
Y203657D02*
D03*
Y195783D02*
D03*
Y187909D02*
D03*
Y180035D02*
D03*
Y172161D02*
D03*
X148579D02*
D03*
Y180035D02*
D03*
Y187909D02*
D03*
Y195783D02*
D03*
Y203657D02*
D03*
Y211532D02*
D03*
Y219406D02*
D03*
Y227280D02*
D03*
D17*
X198185Y166256D02*
D03*
X190311D02*
D03*
X182437D02*
D03*
X174563D02*
D03*
X166689D02*
D03*
X158815D02*
D03*
D18*
X131500Y186000D02*
D03*
X138980D02*
D03*
Y176500D02*
D03*
X131500D02*
D03*
X171260Y152500D02*
D03*
X178740D02*
D03*
X190000D02*
D03*
X197480D02*
D03*
X270260Y154000D02*
D03*
X277740D02*
D03*
D19*
X255445Y166598D02*
D03*
X264500D02*
D03*
X273555D02*
D03*
D20*
X264500Y191402D02*
D03*
D21*
X230300Y201400D02*
D03*
X234000D02*
D03*
X237700D02*
D03*
Y211600D02*
D03*
X230300D02*
D03*
D22*
X246610Y151000D02*
D03*
X260390D02*
D03*
X234000D02*
D03*
X220220D02*
D03*
D23*
X229000Y189390D02*
D03*
Y175610D02*
D03*
D24*
X244000Y183760D02*
D03*
Y191240D02*
D03*
X243500Y166500D02*
D03*
Y173980D02*
D03*
X253000Y210240D02*
D03*
Y202760D02*
D03*
X243000Y225760D02*
D03*
Y233240D02*
D03*
X251711Y240260D02*
D03*
Y247740D02*
D03*
X243000D02*
D03*
Y240260D02*
D03*
D25*
X270500Y146000D02*
D03*
X277980D02*
D03*
D26*
X279500Y200500D02*
D03*
X271232D02*
D03*
D27*
X252000Y233240D02*
D03*
Y225760D02*
D03*
M02*
