M48
;Layer_Color=9474304
;FILE_FORMAT=2:4
INCH,TZ
T08F00S00C0.2000
%
G90
G05
T08
G00X28749Y11120
M15
G01X28940Y11179
G01X29115Y11275
G01X29268Y11404
G01X29392Y11560
G01X29482Y11738
G01X29536Y11931
G01X29550Y12100
G01X29550Y26050
G01X29530Y26249
G01X29471Y26440
G01X29375Y26615
G01X29246Y26768
G01X29090Y26892
G01X28912Y26982
G01X28719Y27036
G01X28550Y27050
G01X21000Y27050
G01X20801Y27030
G01X20610Y26971
G01X20435Y26875
G01X20282Y26746
G01X20158Y26590
G01X20068Y26412
G01X20014Y26219
G01X20000Y26050
G01X20000Y24000
G01X15700Y24000
G01X15700Y26050
G01X15680Y26249
G01X15621Y26440
G01X15525Y26615
G01X15396Y26768
G01X15240Y26892
G01X15062Y26982
G01X14869Y27036
G01X14700Y27050
G01X12500Y27050
G01X12301Y27030
G01X12110Y26971
G01X11935Y26875
G01X11782Y26746
G01X11658Y26590
G01X11568Y26412
G01X11514Y26219
G01X11500Y26050
G01X11500Y12100
G01X11520Y11901
G01X11579Y11710
G01X11675Y11535
G01X11804Y11382
G01X11960Y11258
G01X12138Y11168
G01X12331Y11114
G01X12500Y11100
G01X28550Y11100
G01X28749Y11120
M16
M17
M30
