G04*
G04 #@! TF.GenerationSoftware,Altium Limited,Altium Designer,24.1.2 (44)*
G04*
G04 Layer_Color=65535*
%FSLAX25Y25*%
%MOIN*%
G70*
G04*
G04 #@! TF.SameCoordinates,539E6247-A82E-4B89-B4FB-6AA9409DBF92*
G04*
G04*
G04 #@! TF.FilePolarity,Positive*
G04*
G01*
G75*
%ADD10C,0.00787*%
%ADD11C,0.00000*%
%ADD12C,0.00197*%
%ADD13C,0.01000*%
%ADD14C,0.00500*%
%ADD15C,0.00600*%
D10*
X141886Y227279D02*
X141492D01*
X141886D01*
X141492D01*
X143394Y149441D02*
X142606D01*
X143394D01*
X133394Y149559D02*
X132606D01*
X133394D01*
X284224Y200500D02*
X283437D01*
X284224D01*
X239894Y257500D02*
X239106D01*
X239894D01*
X147004Y166256D02*
X154878D01*
X147004D02*
Y168618D01*
X209996Y166256D02*
Y168618D01*
X202122Y166256D02*
X209996D01*
X135240Y183933D02*
Y188067D01*
Y174433D02*
Y178567D01*
X175000Y150433D02*
Y154567D01*
X193740Y150433D02*
Y154567D01*
X148000Y152000D02*
Y162000D01*
X128000Y152000D02*
Y162000D01*
X148000D01*
X128000Y152000D02*
X148000D01*
X128000Y137000D02*
Y147000D01*
X148000Y137000D02*
Y147000D01*
X128000Y137000D02*
X148000D01*
X128000Y147000D02*
X148000D01*
X251705Y172110D02*
Y185890D01*
X277295D01*
Y172110D02*
Y185890D01*
X251705Y172110D02*
X277295D01*
X252197Y163154D02*
Y170043D01*
X274000Y151933D02*
Y156067D01*
X249563Y159465D02*
X261965D01*
Y156906D02*
Y159465D01*
X249563Y142535D02*
X261965D01*
Y145094D01*
Y156906D02*
Y159465D01*
X249563D02*
X261965D01*
X218646Y142535D02*
X231047D01*
X218646D02*
Y145094D01*
Y159465D02*
X231047D01*
X218646Y156906D02*
Y159465D01*
Y142535D02*
Y145094D01*
Y142535D02*
X231047D01*
X237465Y174035D02*
Y186437D01*
X234906Y174035D02*
X237465D01*
X220535D02*
Y186437D01*
Y174035D02*
X223094D01*
X234906D02*
X237465D01*
Y186437D01*
X241933Y187500D02*
X246067D01*
X241433Y170240D02*
X245567D01*
X250933Y206500D02*
X255067D01*
X240933Y229500D02*
X245067D01*
X227139Y257000D02*
X237139D01*
X227139Y237000D02*
X237139D01*
X227139D02*
Y257000D01*
X237139Y237000D02*
Y257000D01*
X249644Y244000D02*
X253778D01*
X240933D02*
X245067D01*
D11*
X227900Y205300D02*
X228748Y205651D01*
X229100Y206500D01*
X228748Y207348D01*
X227900Y207700D01*
D12*
X229000Y196772D02*
Y196575D01*
Y196772D01*
D13*
X210000Y233000D02*
Y260500D01*
X156000Y230000D02*
X201000D01*
X147000Y233000D02*
Y260500D01*
X285500Y247000D02*
Y260500D01*
Y121000D02*
Y205500D01*
X125000Y121000D02*
X285500D01*
X210000Y260500D02*
X285500D01*
X125000D02*
X147000D01*
X125000Y121000D02*
Y260500D01*
D14*
X211335Y127142D02*
Y136614D01*
X202728Y127142D02*
X211335D01*
X184917D02*
X194272D01*
X184917D02*
Y136614D01*
X192886Y144858D02*
X204114D01*
X181992Y127299D02*
Y136772D01*
X173386Y127299D02*
X181992D01*
X155575D02*
X164929D01*
X155575D02*
Y136772D01*
X163543Y145016D02*
X174772D01*
X274854Y198039D02*
X275878D01*
X274854Y202961D02*
X275878D01*
D15*
X227900Y207700D02*
Y208900D01*
Y205300D02*
Y207700D01*
Y204100D02*
Y205300D01*
M02*
