G04*
G04 #@! TF.GenerationSoftware,Altium Limited,Altium Designer,24.1.2 (44)*
G04*
G04 Layer_Color=32768*
%FSLAX25Y25*%
%MOIN*%
G70*
G04*
G04 #@! TF.SameCoordinates,C2AC8D72-DAC2-4925-AC6E-3273F7DC1B7E*
G04*
G04*
G04 #@! TF.FilePolarity,Positive*
G04*
G01*
G75*
%ADD12C,0.00197*%
%ADD71C,0.00394*%
D12*
X141736Y182063D02*
Y189937D01*
X128744D02*
X141736D01*
X128744Y182063D02*
Y189937D01*
Y182063D02*
X141736D01*
X128744Y172563D02*
Y180437D01*
Y172563D02*
X141736D01*
Y180437D01*
X128744D02*
X141736D01*
X168504Y156437D02*
X181496D01*
Y148563D02*
Y156437D01*
X168504Y148563D02*
X181496D01*
X168504D02*
Y156437D01*
X187244D02*
X200236D01*
Y148563D02*
Y156437D01*
X187244Y148563D02*
X200236D01*
X187244D02*
Y156437D01*
X183933Y126158D02*
X212319D01*
X183933D02*
Y145843D01*
X212319D01*
Y126158D02*
Y145843D01*
X154590Y126315D02*
X182976D01*
X154590D02*
Y146000D01*
X182976D01*
Y126315D02*
Y146000D01*
X148984Y151016D02*
Y162984D01*
X127016D02*
X148984D01*
X127016Y151016D02*
Y162984D01*
Y151016D02*
X148984D01*
X127016Y136016D02*
Y147984D01*
Y136016D02*
X148984D01*
Y147984D01*
X127016D02*
X148984D01*
X212016Y206516D02*
X223984D01*
Y248484D01*
X212016D02*
X223984D01*
X212016Y206516D02*
Y248484D01*
X280496Y150063D02*
Y157937D01*
X267504D02*
X280496D01*
X267504Y150063D02*
Y157937D01*
Y150063D02*
X280496D01*
X235783Y163402D02*
X268461D01*
Y138598D02*
Y163402D01*
X235783Y138598D02*
X268461D01*
X235783D02*
Y163402D01*
X212150Y138598D02*
X244827D01*
X212150D02*
Y163402D01*
X244827D01*
Y138598D02*
Y163402D01*
X241402Y167539D02*
Y200217D01*
X216598Y167539D02*
X241402D01*
X216598D02*
Y200217D01*
X241402D01*
X240063Y193996D02*
X247937D01*
X240063Y181004D02*
Y193996D01*
Y181004D02*
X247937D01*
Y193996D01*
X239563Y176736D02*
X247437D01*
X239563Y163744D02*
Y176736D01*
Y163744D02*
X247437D01*
Y176736D01*
X282846Y197055D02*
Y203945D01*
X267886D02*
X282846D01*
X267886Y197055D02*
Y203945D01*
Y197055D02*
X282846D01*
X249063Y200004D02*
X256937D01*
Y212996D01*
X249063D02*
X256937D01*
X249063Y200004D02*
Y212996D01*
X239063Y235996D02*
X246937D01*
X239063Y223004D02*
Y235996D01*
Y223004D02*
X246937D01*
Y235996D01*
X226155Y257984D02*
X238124D01*
X226155Y236016D02*
Y257984D01*
Y236016D02*
X238124D01*
Y257984D01*
X247774Y250496D02*
X255648D01*
X247774Y237504D02*
Y250496D01*
Y237504D02*
X255648D01*
Y250496D01*
X239063Y237504D02*
X246937D01*
Y250496D01*
X239063D02*
X246937D01*
X239063Y237504D02*
Y250496D01*
X132114Y258484D02*
X143886D01*
X132114Y196516D02*
Y258484D01*
Y196516D02*
X143886D01*
Y258484D01*
X284484Y127114D02*
Y138886D01*
X222516D02*
X284484D01*
X222516Y127114D02*
Y138886D01*
Y127114D02*
X284484D01*
X259071Y206441D02*
Y246559D01*
Y206441D02*
X292220D01*
Y246559D01*
X259071D02*
X292220D01*
D71*
X217280Y159169D02*
Y264681D01*
X139720Y159169D02*
X217280D01*
X139720D02*
Y264681D01*
X217280D01*
M02*
