G04*
G04 #@! TF.GenerationSoftware,Altium Limited,Altium Designer,24.1.2 (44)*
G04*
G04 Layer_Color=16711935*
%FSLAX25Y25*%
%MOIN*%
G70*
G04*
G04 #@! TF.SameCoordinates,C2AC8D72-DAC2-4925-AC6E-3273F7DC1B7E*
G04*
G04*
G04 #@! TF.FilePolarity,Negative*
G04*
G01*
G75*
%ADD28C,0.09461*%
%ADD29R,0.06737X0.06737*%
%ADD30C,0.06737*%
%ADD31C,0.06194*%
%ADD32R,0.06194X0.06194*%
%ADD33R,0.06194X0.06194*%
%ADD34R,0.07591X0.07591*%
%ADD35C,0.07591*%
%ADD36R,0.07591X0.07591*%
%ADD37C,0.03359*%
%ADD38O,0.08083X0.04934*%
%ADD39O,0.09265X0.04934*%
%ADD40C,0.05800*%
%ADD68R,0.05328X0.03162*%
%ADD69R,0.05328X0.01981*%
D28*
X132500Y128500D02*
D03*
X278000Y253500D02*
D03*
D29*
X208342Y140843D02*
D03*
X179000Y141000D02*
D03*
D30*
X198500Y131000D02*
D03*
X188657Y140843D02*
D03*
X169157Y131157D02*
D03*
X159315Y141000D02*
D03*
D31*
X133000Y157000D02*
D03*
X143000Y142000D02*
D03*
X218000Y222500D02*
D03*
Y232500D02*
D03*
Y242500D02*
D03*
X232139Y242000D02*
D03*
D32*
X143000Y157000D02*
D03*
X133000Y142000D02*
D03*
X218000Y212500D02*
D03*
D33*
X232139Y252000D02*
D03*
D34*
X138000Y252500D02*
D03*
D35*
Y242500D02*
D03*
Y232500D02*
D03*
Y222500D02*
D03*
Y212500D02*
D03*
Y202500D02*
D03*
X268500Y133000D02*
D03*
X258500D02*
D03*
X248500D02*
D03*
X238500D02*
D03*
X228500D02*
D03*
D36*
X278500D02*
D03*
D37*
X266512Y237878D02*
D03*
Y215122D02*
D03*
D38*
X281000Y209492D02*
D03*
Y243508D02*
D03*
D39*
X264543Y209492D02*
D03*
Y243508D02*
D03*
D40*
X270500Y177000D02*
D03*
X131000Y148400D02*
D03*
X198700Y212000D02*
D03*
X160635Y180035D02*
D03*
X238300Y194400D02*
D03*
X253400Y217100D02*
D03*
X263500Y199300D02*
D03*
X273500Y138920D02*
D03*
X156400Y189909D02*
D03*
X199000Y224600D02*
D03*
D68*
X262319Y213902D02*
D03*
Y217051D02*
D03*
Y235949D02*
D03*
Y239098D02*
D03*
D69*
Y219610D02*
D03*
Y221579D02*
D03*
Y223547D02*
D03*
Y225516D02*
D03*
Y227484D02*
D03*
Y229453D02*
D03*
Y231421D02*
D03*
Y233390D02*
D03*
M02*
